# xmcd
#
# Track frame offsets:
#	150
#	17815
#	34848
#	52427
#	64500
#	83942
#	102587
#	121134
#	138693
#	153465
#	171107
#
# Disc length: 2520 seconds
#
# Revision: 1
# Processed by: cddbd v1.5.2PL0 Copyright (c) Steve Scherf et al.
# Submitted via: EasyCDDAExtractor 16.1.0.1
#
DISCID=9b09d60b
DTITLE=Keystone Caps - How To Crawl
DYEAR=2011
DGENRE=
TTITLE0=Greasy Music
TTITLE1=Drive All Night
TTITLE2=Missing Number
TTITLE3=Roses On Our Bed
TTITLE4=You Never Know
TTITLE5=Got Me Goin'
TTITLE6=First Lullaby
TTITLE7=Janey's Gonna Leave
TTITLE8=How To Crawl
TTITLE9=Hard Work
TTITLE10=Room To Moove
EXTD=
EXTT0=
EXTT1=
EXTT2=
EXTT3=
EXTT4=
EXTT5=
EXTT6=
EXTT7=
EXTT8=
EXTT9=
EXTT10=
PLAYORDER=
